/* XPM */
static char * smw_leveleditor_xpm[] = {
"32 32 18 1",
" 	c None",
".	c #000000",
"+	c #80B850",
"@	c #A8E078",
"#	c #589028",
"$	c #306800",
"%	c #282828",
"&	c #58A0C8",
"*	c #C09000",
"=	c #F8C800",
"-	c #F8F8F8",
";	c #906000",
">	c #E04808",
",	c #F89800",
"'	c #F8A060",
")	c #D88040",
"!	c #B06020",
"~	c #884008",
"                                ",
"    ........................    ",
"   .+@####$%&&&&%*==********.   ",
"  .%##%%%%#$%&&&%*=*-------;*.  ",
" .%#%%+##$%$%&&&%*=---------;;. ",
" .%%+@@++#$%$%&&%*=---...---.;. ",
" .%+@@+++#$%$%&&%*=*...;;---.;. ",
" .%+@>+++#$%%%&&%*=*;;-----..;. ",
" .+@>,>++#$%#$%&%*=***---...;;. ",
" .+@@>+###$%#$%&%*=****...;;*;. ",
" .+@@+#+++#++#$%%*=***---;;**;. ",
" .+=@++++++++#$%%*****---.;**;. ",
" .==*++++=+++#$%%*;****...;*;;. ",
" .+*++++==*++#$%%*;;;;;;;;;;;;. ",
" .#######*####$%%%;;;;;;;;;;;;. ",
" .$$$$$$$$$$$$%&&%%%%%%%%%%%%%. ",
" .%%%%%%%%%%%%%%%%%%%%%%%%%%%%. ",
" .''''''''''''''''''''''''''''. ",
" .)))))))))))))))))))))))))))). ",
" .!!!!!!!!!!!!!!!!!!!!!!!!!!!!. ",
" .~~~~~~~~~~~~~~~~~~~~~~~~~~~~. ",
" .%%%%%%%%%%%%%%%%%%%%%%%%%%%%. ",
" .)))))!!!)))))!!!)))))!!!)))). ",
" .!)))))!!!)))))!!!)))))!!!))). ",
" .~~!!!!!~~~!!!!!~~~!!!!!~~~!!. ",
" .~~~~!!!!~~~~!!!!~~~~!!!!~~~~. ",
" .!!~~~~!!!!~~~!!!!!~~~~!!!!~~. ",
" .!!!!~~~~!!!!~~!!!!!!~~~~!!!!. ",
"  .!!!!!~~~!!!!~~~!!!!!!~~~!!.. ",
"   .!!!!!!~~!!!!!~~~!!!!!!~~.   ",
"    ........................    ",
"                                "};
