/* XPM */
static char * smw_server_xpm[] = {
"32 32 23 1 ",
"  c None",
". c #000000",
"X c #282828",
"o c #A00000",
"O c #C80018",
"+ c #F82038",
"@ c #A85000",
"# c #E86050",
"$ c #589000",
"% c #78B000",
"& c #E08030",
"* c #A0D800",
"= c #F0C830",
"- c #F09058",
"; c #284880",
": c #3870A8",
"> c #4898D0",
", c #F8B880",
"< c #9C95FF",
"1 c #A4B9FF",
"2 c #BDCAFF",
"3 c #D5DAFF",
"4 c #FFFBFF",
"                                ",
"    ........................    ",
"   .<<<<<<<<<<<<<<<<<<<<<<<<.   ",
"  .<<<<<XXXXX<<XXX<<<<<<<<<<<.  ",
" .<<<<<XooO++XX#--X<<<<<<<<<23. ",
" .<<<<XooOOOOOOX##X<<<<<<<<233. ",
" .<<<<XXX##X#XXXOX<<<<<<<<<233. ",
" .<<<X--XX-X--,-OX<<<<<<222333. ",
" .<<<X##XX--X###OX<<<<22333333. ",
" .<<<<XX##-XXXXXX<<<<233333333. ",
" .<<<<<XX######OX<<<<233333333. ",
" .<<<XO+O;:oOXOX<<<<2333333333. ",
" .<<XXXo+O;:oOXXXX.<2333333333. ",
" .<X,,#XooX4>>XXX@XXXXXX333333. ",
" .<X--#XoX:::X--#XX**%$$X33333. ",
" .<<X@XXX:;;;X##X%%%%%%$$X3333. ",
" .<X@@&X:;;;XXX%XXX#X##XXX3333. ",
" .2X@&X;;;XX<<X%-,--X-XX--X333. ",
" .33XX1XXX<<<2X%###X--XX##X333. ",
" .3332221<<2233XXXXXX-##XX3333. ",
" .3333222113333X%######XX33333. ",
" .33333222233333X%X%$:;%*%X333. ",
" .333333223333XXXX%$:;%*$XXX33. ",
" .33333323333X@=X4>>4X$$X#,,X3. ",
" .33333333333X@@=X::::X$X#--X3. ",
" .333333333333X@&X;;;;:XXX@X33. ",
" .333333333333X@&XXX;;;:X&@@X3. ",
" .3333333333333XX333XX;;;X&@X3. ",
"  .3333333333333333332XXX3XX3.  ",
"   .333333333333333332333333.   ",
"    ........................    ",
"                                "};
