/* XPM */
static char * smw_worldeditor_xpm[] = {
"32 32 17 1",
" 	c None",
".	c #000000",
"+	c #5098F8",
"@	c #80C8F8",
"#	c #F8F8F8",
"$	c #98E0F8",
"%	c #1860C8",
"&	c #B0B018",
"*	c #68E890",
"=	c #28A850",
"-	c #48C870",
";	c #2068D0",
">	c #0038A0",
",	c #5888F0",
"'	c #78A8F8",
")	c #A8E890",
"!	c #F0F8A8",
"                                ",
"    ........................    ",
"   .+++++++++@@@+@@@++++++++.   ",
"  .++++++++++++++++++++++++++.  ",
" .++++###+++++++++++++###+++++. ",
" .++$$$+$$$+++++++++$$$+$$$+++. ",
" .++++++++++++++++++++++++++++. ",
" .++++++++++++++++++++++++++++. ",
" .+++%%++%%%%++++++++%%++%%%%+. ",
" .+%%%%%%%%%%%%++++%%%%%%%%%%%. ",
" .%%%..%%....%%%%%%%%..%%....%. ",
" .%..&&..&&&&..%%%%..&&..&&&&.. ",
" ..&&&&&&&&&&&&....&&&&&&&&&&&. ",
" .&&&*&&&&**&&&&&&&&&*&&&&**&&. ",
" .&************&&&&***********. ",
" .=-*===-*=-*==###############. ",
" .*-====***-===#...;........... ",
" .===*-**-===*-#.>>,........... ",
" .=*=-=*--=*=-=#.>,',.......... ",
" .===**======**#;,'#',;........ ",
" .****--==****-#.>,',.......... ",
" .-*=*-*==-*=*-#.>>,........... ",
" .*=--===**=--=#.>>;........... ",
" .)))))))))))))#.>>;......#.... ",
" .)))))))))))))#.>>,.....##.... ",
" .!!!!!!!!!!!!!#.>,',.....#.... ",
" .!!!!!!!!!!!!!#;,'#',;...#.... ",
" .!!!!!!!!!!!!!#.>,',.....#.... ",
"  .!!!!!!!!!!!!#.>>,......#...  ",
"   .)))))))))))#...;.........   ",
"    ........................    ",
"                                "};
